<?xml version="1.0" encoding="UTF-8"?>
<svg width="1200pt" height="1200pt" version="1.1" viewBox="0 0 1200 1200" xmlns="http://www.w3.org/2000/svg" fill="pink">
 <path d="m631 450c-4.0156-7.8203-5.8984-16.559-5.457-25.336 0.4375-8.7773 3.1836-17.285 7.957-24.664l100-150c6.6484-12.395 18.215-21.418 31.855-24.852 13.641-3.4336 28.098-0.96484 39.824 6.8086 11.727 7.7695 19.637 20.121 21.793 34.02 2.1523 13.902-1.6484 28.066-10.473 39.023l-50 72.5h108.5c17.863 0 34.371 9.5312 43.301 25 8.9336 15.469 8.9336 34.531 0 50-8.9297 15.469-25.438 25-43.301 25h-200c-9.1484-0.12109-18.09-2.7461-25.848-7.5977-7.7578-4.8477-14.035-11.73-18.152-19.902zm-306 25h200c8.8945 0.125 17.66-2.1289 25.395-6.5234 7.7383-4.3945 14.16-10.773 18.605-18.477 4.0156-7.8203 5.8984-16.559 5.457-25.336-0.4375-8.7773-3.1836-17.285-7.957-24.664l-100-150c-6.6484-12.395-18.215-21.418-31.855-24.852-13.641-3.4336-28.098-0.96484-39.824 6.8086-11.727 7.7695-19.637 20.121-21.793 34.02-2.1523 13.902 1.6484 28.066 10.473 39.023l50 72.5h-108.5c-17.863 0-34.371 9.5312-43.301 25-8.9336 15.469-8.9336 34.531 0 50 8.9297 15.469 25.438 25 43.301 25zm650 179.5c-4.125 97.711-45.094 190.24-114.66 258.97-69.57 68.734-162.59 108.58-260.34 111.53-97.578-3.1914-190.34-43.148-259.7-111.86s-110.19-161.1-114.3-258.64c-0.97656-20.125 6.2383-39.785 20-54.5 13.82-15.375 33.336-24.41 54-25h600c20.863 0.058594 40.77 8.7461 55 24 13.656 15.125 20.523 35.18 19 55.5zm-103 20.5h-543c8.1367 67.059 39.871 129.04 89.523 174.84 49.648 45.805 113.98 72.445 181.48 75.16 67.496-2.7148 131.83-29.355 181.48-75.16 49.652-45.805 81.387-107.78 89.523-174.84zm303-75c0 152.5-60.582 298.75-168.41 406.59-107.83 107.83-254.09 168.41-406.59 168.41s-298.75-60.582-406.59-168.41c-107.83-107.83-168.41-254.09-168.41-406.59s60.582-298.75 168.41-406.59c107.83-107.83 254.09-168.41 406.59-168.41 152.46 0.13281 298.64 60.754 406.44 168.56 107.8 107.8 168.43 253.98 168.56 406.44zm-100 0c0-125.98-50.043-246.8-139.12-335.88-89.078-89.082-209.9-139.12-335.88-139.12s-246.8 50.043-335.88 139.12c-89.082 89.078-139.12 209.9-139.12 335.88s50.043 246.8 139.12 335.88c89.078 89.082 209.9 139.12 335.88 139.12 125.94-0.13281 246.68-50.219 335.73-139.27s139.14-209.79 139.27-335.73z"/>
</svg>
